<?xml version="1.0" encoding="utf-8"?>
<!-- Generator: Adobe Illustrator 21.1.0, SVG Export Plug-In . SVG Version: 6.00 Build 0)  -->
<svg version="1.1" xmlns="http://www.w3.org/2000/svg" xmlns:xlink="http://www.w3.org/1999/xlink" x="0px" y="0px" width="800.6px"
	 height="280px" viewBox="0 0 800.6 280" style="enable-background:new 0 0 800.6 280;" xml:space="preserve">
<style type="text/css">
	.st0{fill:#FFFFFF;}
	.st1{fill:#3FC292;}
	.st2{fill:url(#SVGID_1_);}
	.st3{fill:url(#SVGID_2_);}
	.st4{fill:url(#SVGID_3_);}
	.st5{fill:url(#SVGID_4_);}
</style>
<g id="Text">
	<rect x="300" y="138" class="st0" width="500" height="4"/>
	<g>
		<path class="st0" d="M329.3,119.2c-2.6,0.3-6.2,0.5-10.7,0.5h-19.1c1-0.2,2.1-1.1,3.2-2.6c1.2-1.5,1.7-4.4,1.7-8.8V50.9
			c0-4-0.5-6.8-1.6-8.3c-1.1-1.5-2.2-2.4-3.2-2.7h19c4.9,0,8.7,0.2,11.3,0.6c2.6,0.4,4.9,1.1,6.8,1.9c3.4,1.6,6,3.9,7.9,6.8
			c1.9,2.9,2.8,6.1,2.8,9.5c0,5.2-1.6,9.6-4.7,13.4c-3.1,3.8-7.3,6.2-12.4,7.3c3.5,0.4,6.8,1.4,9.9,3s5.7,3.8,7.7,6.6s3,6,3,9.5
			c0,5-1.3,9-3.9,12.1c-2.6,3.1-6.2,5.5-10.7,7C334.2,118.4,331.9,118.9,329.3,119.2z M327.9,45.4c-1.8-0.6-4.2-0.9-7.2-0.9h-8v32.9
			h9.4c2.8,0,5.1-0.4,7-1.3c1.9-0.8,3.5-2,4.9-3.4c1.5-1.5,2.6-3.2,3.5-5.3c0.8-2.1,1.3-4.2,1.3-6.4c0-2.6-0.5-5.1-1.4-7.4
			c-1-2.3-2.4-4.2-4.4-5.7C331.4,46.9,329.7,46,327.9,45.4z M329.9,82.9c-2.2-0.5-5.1-0.8-8.8-0.8h-8.4v32.9h11
			c5.6,0,9.9-1.3,13-3.9c3.1-2.6,4.7-6.8,4.7-12.5c0-5.3-2-9.7-6.1-13.1C333.9,84.3,332.1,83.5,329.9,82.9z"/>
		<path class="st0" d="M422.9,39.9c-0.8,0.2-2,1-3.7,2.6c-1.7,1.5-3.8,4.4-6.1,8.6L393,85.5v23.4c0,3.9,0.5,6.7,1.6,8.2
			c1.1,1.5,2.1,2.4,3,2.6H380c0.9-0.2,1.9-1,3-2.5c1.1-1.5,1.6-4.3,1.6-8.3V85.4l-19.8-34.5c-2.3-4-4.3-6.8-6-8.3
			c-1.7-1.5-3.1-2.4-4.1-2.7h19.5c-1.9,0.4-2.9,1.6-2.9,3.7c0,0.7,0.2,1.5,0.7,2.5c0.5,1,1.2,2.3,2.2,4.1L391,79.8l16.8-29.1
			c1.3-2.2,2-4.4,2-6.6c0-1.5-0.4-2.5-1.3-3.1c-0.9-0.6-1.8-0.9-2.6-1.1H422.9z"/>
		<path class="st0" d="M529.1,39.9c-1.1,0.2-2.1,1.1-3.2,2.6c-1,1.5-1.6,4.2-1.6,7.9V123l-59.4-69.3v55.6c0,3.7,0.7,6.3,2,7.8
			c1.3,1.5,2.6,2.4,3.8,2.6h-16.4c1.1-0.2,2.2-1.1,3.3-2.6c1.1-1.5,1.7-4.2,1.7-7.9v-58c0-2.6-0.9-5-2.7-7.2c-1.8-2.2-4-3.5-6.7-4.1
			h14.4l54.4,63.5V50.5c0-6-2-9.5-6-10.6H529.1z"/>
		<path class="st0" d="M545.7,119.2c0.9-0.6,1.8-1.7,2.6-3.2c0.8-1.6,1.2-3.9,1.2-7V50.7c0-3.1-0.4-5.4-1.1-7
			c-0.7-1.6-1.6-2.6-2.5-3.2c-0.9-0.5-1.4-0.7-1.4-0.6h18.4c0-0.2-0.5,0-1.4,0.6c-0.9,0.5-1.8,1.6-2.6,3.2c-0.8,1.6-1.2,3.9-1.2,7
			v58.2c0,3.1,0.4,5.4,1.2,7c0.8,1.6,1.6,2.6,2.6,3.2c0.9,0.5,1.4,0.7,1.4,0.6h-18.6C544.3,119.9,544.7,119.8,545.7,119.2z"/>
		<path class="st0" d="M596.1,116.3c-6.3-3.1-11.3-7.7-15.1-13.9c-3.8-6.2-5.7-13.7-5.7-22.6c0-7.9,1.8-15,5.4-21.2
			c3.6-6.3,8.7-11.2,15.2-14.7c6.5-3.6,14.1-5.3,22.6-5.3c5.4,0,10.3,0.6,14.7,1.9c4.4,1.2,7.8,2.6,10.4,4.1v12.9
			c-2.4-4.2-6-7.5-10.7-10.1s-9.6-3.8-14.6-3.8c-6.9,0-12.9,1.5-17.9,4.4c-5.1,2.9-9,7-11.7,12.4c-2.7,5.3-4.1,11.6-4.1,18.8
			c0,7.8,1.6,14.5,4.7,20.1c3.1,5.6,7.3,9.7,12.5,12.5c5.2,2.8,10.8,4.2,16.9,4.2c2.8,0,5.7-0.3,8.6-1c3-0.7,5.7-1.6,8.3-2.8V92.7
			c0-2.4-0.4-4.3-1.2-5.6c-0.8-1.4-1.6-2.3-2.6-2.9c-0.9-0.6-1.4-0.8-1.4-0.6h18.6c0-0.2-0.5,0-1.4,0.5c-0.9,0.5-1.8,1.3-2.6,2.6
			c-0.8,1.3-1.2,3.1-1.2,5.4v21.1c-4.1,2.6-8.5,4.5-13.3,5.9c-4.8,1.4-9.5,2-14.2,2C609.2,121,602.4,119.4,596.1,116.3z"/>
		<path class="st0" d="M715.5,119.2c0.9-0.6,1.8-1.7,2.6-3.2c0.8-1.6,1.2-3.9,1.2-7V82.6h-43.6v26.3c0,3.1,0.4,5.4,1.2,7
			c0.8,1.6,1.6,2.6,2.6,3.2c0.9,0.5,1.4,0.7,1.4,0.6h-18.4c0,0.2,0.5,0.1,1.4-0.5c0.9-0.6,1.8-1.7,2.5-3.2c0.7-1.6,1.1-3.9,1.1-7
			V50.7c0-3.1-0.4-5.4-1.1-7c-0.7-1.6-1.6-2.6-2.5-3.2c-0.9-0.5-1.4-0.7-1.4-0.6h18.4c0-0.2-0.5,0-1.4,0.6c-0.9,0.5-1.8,1.6-2.6,3.2
			c-0.8,1.6-1.2,3.9-1.2,7v26.8h43.6V50.7c0-3.1-0.4-5.4-1.2-7c-0.8-1.6-1.6-2.6-2.6-3.2c-0.9-0.5-1.4-0.7-1.4-0.6h18.4
			c0-0.2-0.5-0.1-1.4,0.5c-0.9,0.6-1.8,1.7-2.5,3.2c-0.7,1.6-1.1,3.9-1.1,7v58.2c0,3.1,0.4,5.4,1.2,7c0.8,1.6,1.6,2.6,2.6,3.2
			c0.9,0.5,1.4,0.7,1.4,0.6h-18.6C714.1,119.9,714.6,119.8,715.5,119.2z"/>
		<path class="st0" d="M746.5,46.5c-2.2,1.3-3.9,3-4.9,5l1.6-11.6h55l1.6,11.6c-1-2-2.6-3.7-4.9-5c-2.2-1.3-5.1-2-8.5-2h-11.6v64.4
			c0,3.1,0.4,5.5,1.2,7.1c0.8,1.6,1.6,2.7,2.6,3.2s1.4,0.7,1.4,0.5h-18.4c0,0.2,0.5,0.1,1.4-0.5s1.8-1.6,2.5-3.2
			c0.7-1.6,1.1-4,1.1-7.1V44.5h-11.6C751.5,44.5,748.7,45.2,746.5,46.5z"/>
	</g>
	<g>
		<g>
			<path class="st1" d="M309.9,239.6c-3.7-1.1-7-2.7-10-4.7v-14c2,5.2,5.1,9.1,9.2,11.8c4.1,2.7,8.4,4,12.9,4
				c4.5,0,8.2-1.5,11.3-4.5c3-3,4.5-6.7,4.5-11.1c0-2.9-0.6-5.5-1.8-7.5c-1.2-2.1-3.1-4-5.7-5.9c-2.6-1.8-6.3-3.8-11.1-6.1
				c-6.7-3.1-11.6-6.3-14.7-9.7c-3.1-3.4-4.6-7.4-4.6-12.2c0-4.1,1-7.8,3-11c2-3.2,4.6-5.7,8-7.4c3.4-1.7,7.1-2.6,11.1-2.6
				c3.5,0,6.9,0.5,10.2,1.5c3.3,1,6.4,2.3,9.3,4.1v12.5c-1.9-4.3-4.7-7.6-8.4-9.9c-3.8-2.4-7.6-3.5-11.4-3.5c-4.4,0-8,1.4-10.7,4.3
				c-2.7,2.9-4.1,6.3-4.1,10.2c0,2.9,0.8,5.3,2.4,7.4c1.6,2,3.6,3.8,6,5.2c2.4,1.4,5.7,3.1,9.9,5.1c4.3,2.1,7.9,4,10.7,5.8
				c2.8,1.8,5.1,4.1,7,7c1.9,2.9,2.8,6.3,2.8,10.4c0,4.6-1.1,8.7-3.3,12.1c-2.2,3.4-5.1,6-8.8,7.8c-3.7,1.8-7.7,2.7-12,2.7
				C317.5,241.3,313.6,240.8,309.9,239.6z"/>
			<path class="st1" d="M364.7,166.7c-2.2,1.3-3.9,3-4.9,5l1.6-11.6h55l1.6,11.6c-1-2-2.6-3.7-4.9-5c-2.2-1.3-5.1-2-8.5-2h-11.6
				v64.4c0,3.1,0.4,5.5,1.2,7.1c0.8,1.6,1.6,2.7,2.6,3.2s1.4,0.7,1.4,0.5h-18.4c0,0.2,0.5,0.1,1.4-0.5s1.8-1.6,2.5-3.2
				c0.7-1.6,1.1-4,1.1-7.1v-64.4h-11.6C369.7,164.8,366.9,165.4,364.7,166.7z"/>
			<path class="st1" d="M496.8,212.2c0,6.1-1.2,11.3-3.5,15.7c-2.3,4.4-5.6,7.7-9.8,10c-4.2,2.3-9.1,3.4-14.7,3.4
				c-9.2,0-16.3-2.6-21.3-7.7c-5-5.1-7.5-12.2-7.5-21.2v-41.5c0-3.1-0.4-5.4-1.1-7c-0.7-1.6-1.5-2.6-2.4-3.2
				c-0.9-0.5-1.3-0.7-1.3-0.6h18.1c0-0.2-0.4,0-1.3,0.6c-0.9,0.5-1.7,1.6-2.4,3.1c-0.7,1.5-1.1,3.8-1.1,6.7v41.9
				c0,7.5,1.8,13.3,5.4,17.4c3.6,4.1,8.9,6.1,15.8,6.1c6.4,0,11.5-2,15.2-5.9c3.7-3.9,5.6-9.7,5.6-17.3v-41.9c0-3.1-0.4-5.4-1.2-7
				c-0.8-1.6-1.6-2.6-2.6-3.2c-0.9-0.5-1.4-0.7-1.4-0.6h16.7c0-0.2-0.5,0-1.4,0.6c-0.9,0.5-1.8,1.6-2.6,3.2c-0.8,1.6-1.2,3.9-1.2,7
				V212.2z"/>
			<path class="st1" d="M545.5,239.9h-22.9c0,0.2,0.5,0,1.4-0.6s1.8-1.9,2.5-3.7c0.7-1.8,1.1-4.4,1.1-7.8v-57.1c0-3-0.4-5.3-1.1-6.9
				c-0.7-1.6-1.6-2.6-2.5-3.2c-0.9-0.5-1.4-0.7-1.4-0.6h22.7c11.8,0,21.2,1.9,28.1,5.8c6.1,3.4,10.8,8,14.2,13.8
				c3.3,5.8,5,12.3,5,19.6c0,7.9-1.6,14.7-4.7,20.5c-3.1,5.8-7.6,10.3-13.3,13.6C567.4,237.8,557.6,239.9,545.5,239.9z M559.2,166.3
				c-3.9-1-8.5-1.5-13.8-1.5H536v70.5h9.4c6.3,0,11.5-0.5,15.6-1.6c4.1-1.1,7.6-2.7,10.5-5c3.8-2.9,6.7-6.8,8.8-11.5
				c2-4.8,3.1-10.3,3.1-16.6c0-6.7-1.2-12.6-3.5-17.7c-2.4-5.1-5.6-9-9.7-11.7C566.7,168.9,563.1,167.3,559.2,166.3z"/>
			<path class="st1" d="M615.3,239.4c0.9-0.6,1.8-1.7,2.6-3.2c0.8-1.6,1.2-3.9,1.2-7v-58.2c0-3.1-0.4-5.4-1.1-7
				c-0.7-1.6-1.6-2.6-2.5-3.2c-0.9-0.5-1.4-0.7-1.4-0.6h18.4c0-0.2-0.5,0-1.4,0.6c-0.9,0.5-1.8,1.6-2.6,3.2c-0.8,1.6-1.2,3.9-1.2,7
				v58.2c0,3.1,0.4,5.4,1.2,7c0.8,1.6,1.6,2.6,2.6,3.2c0.9,0.5,1.4,0.7,1.4,0.6h-18.6C613.9,240.2,614.4,240,615.3,239.4z"/>
			<path class="st1" d="M658.2,179c3.5-6.4,8.5-11.4,14.8-15c6.4-3.6,13.7-5.3,22.1-5.3c7,0,13.5,1.5,19.5,4.6
				c6.1,3.1,10.9,7.6,14.6,13.7c3.7,6.1,5.5,13.5,5.5,22c0,8.2-1.8,15.5-5.3,21.9c-3.5,6.4-8.5,11.4-14.8,15
				c-6.4,3.6-13.7,5.3-22.1,5.3c-7,0-13.5-1.5-19.5-4.6c-6.1-3.1-10.9-7.6-14.6-13.7c-3.7-6.1-5.5-13.5-5.5-22
				C652.9,192.8,654.7,185.4,658.2,179z M721.2,181.8c-2.9-5.7-6.9-10.1-11.9-13.3c-5.1-3.2-10.8-4.8-17.1-4.8
				c-5.8,0-11,1.5-15.5,4.4c-4.5,2.9-8.1,7.1-10.6,12.5c-2.6,5.4-3.8,11.6-3.8,18.7c0,7,1.5,13.4,4.3,19.1
				c2.9,5.7,6.9,10.1,11.9,13.3c5.1,3.2,10.8,4.8,17.1,4.8c5.8,0,11-1.5,15.5-4.4c4.5-2.9,8.1-7.1,10.6-12.5
				c2.6-5.4,3.8-11.6,3.8-18.7C725.5,193.8,724.1,187.4,721.2,181.8z"/>
			<path class="st1" d="M764.9,239.6c-3.7-1.1-7-2.7-10-4.7v-14c2,5.2,5.1,9.1,9.2,11.8c4.1,2.7,8.4,4,12.9,4
				c4.5,0,8.2-1.5,11.3-4.5c3-3,4.5-6.7,4.5-11.1c0-2.9-0.6-5.5-1.8-7.5c-1.2-2.1-3.1-4-5.7-5.9c-2.6-1.8-6.3-3.8-11.1-6.1
				c-6.7-3.1-11.6-6.3-14.7-9.7c-3.1-3.4-4.6-7.4-4.6-12.2c0-4.1,1-7.8,3-11c2-3.2,4.6-5.7,8-7.4c3.4-1.7,7.1-2.6,11.1-2.6
				c3.5,0,6.9,0.5,10.2,1.5c3.3,1,6.4,2.3,9.3,4.1v12.5c-1.9-4.3-4.7-7.6-8.4-9.9c-3.8-2.4-7.6-3.5-11.4-3.5c-4.4,0-8,1.4-10.7,4.3
				c-2.7,2.9-4.1,6.3-4.1,10.2c0,2.9,0.8,5.3,2.4,7.4c1.6,2,3.6,3.8,6,5.2c2.4,1.4,5.7,3.1,9.9,5.1c4.3,2.1,7.9,4,10.7,5.8
				c2.8,1.8,5.1,4.1,7,7c1.9,2.9,2.8,6.3,2.8,10.4c0,4.6-1.1,8.7-3.3,12.1c-2.2,3.4-5.1,6-8.8,7.8c-3.7,1.8-7.7,2.7-12,2.7
				C772.4,241.3,768.6,240.8,764.9,239.6z"/>
		</g>
	</g>
</g>
<g id="Skull">
	<g>
		<g>
			<g>
				<path class="st0" d="M140,280L140,280C62.7,280,0,217.3,0,140v0C0,62.7,62.7,0,140,0h0c77.3,0,140,62.7,140,140v0
					C280,217.3,217.3,280,140,280z"/>
			</g>
			<linearGradient id="SVGID_1_" gradientUnits="userSpaceOnUse" x1="140" y1="274.3575" x2="140" y2="99.7394">
				<stop  offset="0" style="stop-color:#3FC292"/>
				<stop  offset="1" style="stop-color:#102621"/>
			</linearGradient>
			<path class="st2" d="M140,275.8L140,275.8C65.1,275.8,4.4,215,4.4,140.1v0C4.4,65.2,65.1,4.5,140,4.5h0
				c74.9,0,135.6,60.7,135.6,135.6v0C275.6,215,214.9,275.8,140,275.8z"/>
		</g>
		<g>
			<path class="st0" d="M250.2,130.4c-9.1,9.3-15,21.8-15.8,35.6c0.1,1.1,0.1,2.2,0.1,3.4c0,1.1,0,2.2-0.1,3.3v0
				c-0.4,7.7-2.2,15.1-5.1,21.8c0,0,0,0.1-0.1,0.1c-3.4-1-7.1-1.5-10.8-1.5c-6.1,0-11.8,1.4-17,3.8c-1,0.5-1.9,1-2.9,1.5
				c-1.4,0.8-2.7,1.7-4,2.6h0c-2.6,0-5.1,0.2-7.6,0.7c1.2,0.9,2.3,1.9,3.4,2.9c-1.4,1.3-2.6,2.8-3.7,4.3c0,0,0,0,0,0
				c-1.9,2.5-3.5,5.2-4.7,8.1c-0.4,1-0.8,2-1.2,3v0c-1.3,3.9-2,8-2.1,12.4c0,0.1,0,0.2,0,0.3c0,0.2,0,0.5,0,0.7c0,0.4,0,0.8,0,1.2
				c-2.5,2-5.2,3.8-8,5.5c0-1.4,0.1-2.7,0.3-4c0.1-1.1,0.3-2.2,0.5-3.2c0.6-3,1.6-6,2.8-8.7c-2.9,2.4-5.4,5.3-7.3,8.6
				c-0.9,1.6-1.7,3.3-2.3,5c-0.7,1.9-1.2,4-1.5,6.1c-2.5,1.1-5.2,1.9-7.9,2.7c-0.3-1.9-0.4-3.8-0.4-5.8c0-0.3,0-0.7,0-1
				c0.1-2.9,0.5-5.8,1.2-8.5c0.6-2.4,1.4-4.7,2.4-7c-2.2,1.8-4.1,3.8-5.7,6.1c-2.2,3-3.8,6.5-4.8,10.2c-0.7,2.5-1,5.1-1.1,7.7
				c-1.5,0.2-3.1,0.3-4.7,0.4c-1.1-2.5-1.9-5.1-2.5-7.8c-0.5-2.6-0.8-5.3-0.8-8c0,2.7-0.3,5.4-0.8,8c-0.5,2.7-1.4,5.3-2.5,7.8
				c-1.6-0.1-3.1-0.2-4.7-0.4c0-2.7-0.4-5.3-1.1-7.7c-1-3.7-2.6-7.1-4.8-10.2c-1.6-2.3-3.5-4.3-5.7-6.1c1,2.2,1.8,4.5,2.4,7
				c0.7,2.7,1.1,5.6,1.2,8.5c0,0.3,0,0.7,0,1c0,2-0.1,3.9-0.4,5.8c-2.7-0.7-5.3-1.6-7.9-2.7c-0.3-2.1-0.8-4.1-1.5-6.1
				c-0.6-1.8-1.4-3.4-2.3-5c-1.9-3.3-4.4-6.2-7.3-8.6c1.3,2.8,2.2,5.7,2.8,8.7c0.2,1.1,0.4,2.1,0.5,3.2c0.2,1.3,0.2,2.7,0.3,4
				c-2.8-1.6-5.5-3.5-8-5.5c0-0.4,0-0.8,0-1.2c0-0.2,0-0.5,0-0.7c0-0.1,0-0.2,0-0.3c0-4.3-0.8-8.5-2.1-12.4v0c-0.3-1-0.7-2-1.2-3
				c-1.2-2.9-2.8-5.6-4.7-8.1c0,0,0,0,0,0c-0.9-1.2-1.9-2.4-3-3.5c1.3-1.2,2.6-2.3,3.9-3.4c-2.8-0.6-5.8-1-8.8-1h0
				c-1.3-1-2.6-1.8-4-2.6c-0.9-0.5-1.9-1-2.9-1.5c-5.1-2.4-10.9-3.8-17-3.8c-3.8,0-7.4,0.5-10.8,1.5c0,0-0.1-0.1-0.1-0.1
				c-2.9-6.7-4.7-14.1-5.1-21.8c0,0,0,0,0,0c-0.1-1.1-0.1-2.2-0.1-3.3c0-1.1,0-2.3,0.1-3.4c-0.8-13.8-6.7-26.3-15.8-35.6
				c0-0.2,0-0.5,0-0.7C28,68.3,77.8,18.5,139.1,18.5s111.1,49.7,111.1,111.1C250.2,129.9,250.2,130.1,250.2,130.4z"/>
		</g>
		<linearGradient id="SVGID_2_" gradientUnits="userSpaceOnUse" x1="139.9187" y1="254.0218" x2="139.9187" y2="92.7951">
			<stop  offset="0" style="stop-color:#3FC292"/>
			<stop  offset="1" style="stop-color:#102621"/>
		</linearGradient>
		<path class="st3" d="M155.8,211.3c0,2.7-0.3,5.3-1,7.8c-5.4-0.2-10.3-2.2-14.2-5.4c0,0,0,0,0,0c-0.1-0.3-0.1-0.6-0.2-1
			c-0.3-1.7-0.5-5.3-0.5-5.3s-0.2,3.6-0.5,5.3c-0.1,0.3-0.1,0.6-0.2,1c0,0,0,0,0,0c-2,1.6-4.2,2.9-6.7,3.9c-2.4,0.9-4.9,1.4-7.6,1.5
			c-0.6-2.5-1-5.1-1-7.8c0-8.3,3.3-15.9,8.7-21.5c0,0,0,0,0,0c0.3-0.3,0.6-0.7,1-1c1.9-1.8,3.9-3.3,6.2-4.6c1.4,0.8,2.7,1.7,4,2.7
			c0.8,0.6,1.5,1.3,2.2,1.9c0.3,0.3,0.7,0.6,1,1c0,0,0,0,0,0C152.5,195.4,155.8,203,155.8,211.3z"/>
		<linearGradient id="SVGID_3_" gradientUnits="userSpaceOnUse" x1="91.0906" y1="254.4776" x2="91.0906" y2="90.979">
			<stop  offset="0" style="stop-color:#3FC292"/>
			<stop  offset="1" style="stop-color:#102621"/>
		</linearGradient>
		<path class="st4" d="M116.8,159.6c-1.4-1.1-2.9-2.2-4.4-3.2c-4.4-3-9.2-5.5-14.1-7.6c0,0,0.1,0,0.1,0c-9.3-3.8-19.4-5.9-30.1-5.9
			c0,0-0.1,0-0.1,0c0,0-0.1,0-0.1,0c-2.6,0-5.1,0.1-7.7,0.4c0,0,0,0,0,0c-1.3,0.1-2.6,0.3-3.9,0.5c1.2,1,2.4,2,3.6,2.9
			c0,0.3,0,0.7,0,1c0,10.1,4.2,19.2,10.9,25.7c6.4,6.2,15.2,10.1,24.8,10.1c11,0,20.9-5,27.4-12.8c0.8-1,1.6-2,2.3-3
			C122.9,164.7,120,162.1,116.8,159.6z"/>
		<linearGradient id="SVGID_4_" gradientUnits="userSpaceOnUse" x1="188.6374" y1="254.6465" x2="188.6374" y2="91.1479">
			<stop  offset="0" style="stop-color:#3FC292"/>
			<stop  offset="1" style="stop-color:#102621"/>
		</linearGradient>
		<path class="st5" d="M223.3,144c-2.4-0.4-4.8-0.6-7.3-0.7c-0.3,0-0.6,0-0.9-0.1c-0.4,0-0.8,0-1.2,0c-0.7,0-1.4,0-2.2,0
			c-0.1,0-0.1,0-0.2,0c0,0,0,0-0.1,0c0,0,0,0-0.1,0c-2.7,0-5.3,0.1-7.9,0.4c-2.7,0.3-5.3,0.7-7.9,1.2c-10.3,2.1-20,6.2-28.4,11.9
			c-1.5,1-3,2.1-4.4,3.2c-3.1,2.4-6,5.1-8.8,7.9c0.7,1,1.5,2.1,2.3,3c6.5,7.8,16.4,12.8,27.4,12.8c9.7,0,18.4-3.8,24.8-10.1
			c6.7-6.5,10.9-15.6,10.9-25.7c0-0.3,0-0.5,0-0.8C220.7,146.1,222.1,145.1,223.3,144z"/>
	</g>
</g>
</svg>
