<?xml version="1.0" encoding="utf-8"?>
<!-- Generator: Adobe Illustrator 21.1.0, SVG Export Plug-In . SVG Version: 6.00 Build 0)  -->
<svg version="1.1" id="Capa_1" xmlns="http://www.w3.org/2000/svg" xmlns:xlink="http://www.w3.org/1999/xlink" x="0px" y="0px"
	 width="555.5px" height="137.2px" viewBox="0 0 555.5 137.2" style="enable-background:new 0 0 555.5 137.2;" xml:space="preserve"
	>
<style type="text/css">
	.st0{fill:#FFFFFF;}
</style>
<g>
	<path class="st0" d="M8.5,81.1c0-14.2,0-16.7-0.2-19.6c-0.2-3.1-0.7-4.5-3.9-5.2c-0.8-0.2-2.4-0.3-3.3-0.3c-0.7,0-1.1-0.2-1.1-0.5
		c0-0.5,0.5-0.7,1.6-0.7c4.4,0,10.5,0.3,11,0.3c1.2,0,7.3-0.3,13.1-0.3c9.6,0,27.4-0.8,39,10.3c4.9,4.7,9.4,12.3,9.4,23.1
		c0,11.4-5.1,20.2-10.5,25.6c-4.2,4.1-12.9,10.4-29.5,10.4c-4.2,0-9.3-0.3-13.5-0.5c-4.3-0.3-7.6-0.5-8.1-0.5c-0.2,0-1.8,0-3.9,0.1
		c-1.9,0-4.2,0.2-5.6,0.2c-1.1,0-1.6-0.2-1.6-0.7c0-0.3,0.2-0.5,1-0.5c1.1-0.1,1.8-0.2,2.7-0.4c1.9-0.4,2.4-2.4,2.8-5
		c0.5-3.8,0.5-11,0.5-19.7V81.1z M16.6,90.9c0,9.6,0.1,18,0.2,19.7c0.1,2.3,0.3,5.9,1.1,6.9c1.3,1.7,5.1,3.6,16.5,3.6
		c9,0,17.4-3.1,23.2-8.4c5.1-4.6,7.8-13.3,7.8-21.7c0-11.5-5.4-19-9.3-22.9c-9.1-9-20.2-10.3-31.8-10.3c-1.9,0-5.5,0.3-6.3,0.6
		c-0.9,0.4-1.2,0.8-1.2,1.8c-0.1,3.1-0.1,12.3-0.1,19.3V90.9z"/>
	<path class="st0" d="M97.1,94.6c-0.5,0-0.8,2.3-1.1,2.7l-6.3,16.1c-0.9,2.3-1.5,4.5-1.5,6.1c0,1.8,6.4,2.6,8.2,2.6
		c0.3,0,0.6,0,0.9,0c1.1,0,1.4,0.2,1.4,0.5c0,0.5-0.9,0.7-1.9,0.7c-2.5,0-11.1-0.3-12.3-0.3c-1.2,0-6.9,0.3-11.9,0.3
		c-1.4,0-2-0.2-2-0.7c0-0.4,0.5-0.5,1.5-0.5c0.7,0,1.7-0.1,2.5-0.2c4.8-0.5,6.9-4,8.8-8.6l23.9-56.5c1.3-3,1.7-3.5,2.3-3.5
		c0.6,0,1.1,0.5,2.3,3.3c1.6,3.5,18.1,41.1,24.5,54.9c3.8,8.1,6.8,9.6,9,10.1c1.6,0.5,3.3,0.5,4.1,0.5c0.6,0,1.2,0.1,1.2,0.5
		c0,0.5-0.9,0.7-2.1,0.7c-1.6,0-16.2,0-23.5-0.2c-2-0.1-3.2-0.1-3.2-0.6c0-0.4,0.3-0.5,0.7-0.6c0.6-0.2,8.1-1.4,6.6-3.5l-8.8-23.4
		c-0.2-0.4-0.4-0.5-0.9-0.5H97.1z M118.3,91.3c0.5,0,0.5-0.3,0.4-0.6l-10-22.6c-0.5-1.4-1.1-1.4-1.6,0l-9.2,22.6
		c-0.2,0.5,0,0.6,0.3,0.6H118.3z"/>
	<path class="st0" d="M355.3,133c-0.3,0-0.8,0.1-1.4,0.2c-7,1.6-14.7,1.6-19.5,0.8c-4.3-0.6-16.3-2.8-32.7-12.8
		c-0.5-0.4-0.9-0.8-1.4-1.3c-4.4-4.1-31.9-27.4-37.8-33.9c2.5-2.7,13.2-13.3,21.6-21.3c5.7-5.4,7.5-6.6,9.8-7.5
		c1.3-0.6,3-0.9,4.8-1.1c0.9-0.1,1-0.3,1-0.7c0-0.4-0.3-0.7-1.6-0.7c-1.5,0-7.1,0.3-10,0.3c-3.2,0-7.4-0.3-10.2-0.3
		c-0.9,0-1.4,0.2-1.4,0.6c0,0.4,0.2,0.6,0.9,0.8c0.8,0.3,6-0.1,5.7,1.8c-0.2,1.1-0.4,2.1-6.1,7.9c-5.8,5.9-18.6,19.3-21.6,22.2v0
		c-0.1,0.2-0.2,0.3-0.3,0.4c0.2,0.2,0.3,0.3,0.3,0.5v-0.1c8.2,9.8,24.7,28.5,40.8,38c6.8,5.1,12.1,7.2,27.2,9.5
		c14.2,2.2,25.6-0.3,31.4-1.9c0.6-0.2,0.9-0.4,0.9-0.8C355.8,133.4,355.7,133,355.3,133z"/>
	<path class="st0" d="M390.2,54.8c-4,0-7.2,0.3-8.3,0.3c-1.1,0-10.4-0.3-14.8-0.3c-1.2,0-1.9,0.1-1.9,0.6c0,0.4,0.3,0.6,1.4,0.6
		c0.9,0,2.4,0.1,4.2,0.5c3,0.7,7,1.1,6.3,10.2l1.2,37c-3.1-3-11-8.5-20.7-18.2c-13.8-13.8-27.8-25.3-30.9-28.5
		c-0.2-0.1-0.3-0.2-0.5-0.3c0,0-0.1,0-0.1-0.1c0,0,0,0.1,0,0.1c-0.5-0.5-1-1.1-1.4-1.8c-1.3,0.1-2.3,0.1-2.6,0.1
		c-0.9,0-8-0.3-13.5-0.3c-1.2,0-1.8,0.2-1.8,0.7c0,0.4,0.3,0.5,0.8,0.5c0.9,0,3,0.3,4.9,0.5c4.2,0.4,6.8,3.1,7,10.5l0.7,36.4
		c0.7,21,2.1,16.5,2.1,16.5l2.4-52c3.1,3.3,15.6,14.2,26.9,25.6c10.3,10.3,24.3,23.7,25.4,24.6c5.2,4.8,4.4,5.8,5.2,5.8
		c0.7,0,0.9-0.5,0.9-6.4l-0.7-52.9c0-6.3,3.4-7.8,6.2-8.3c1.2-0.2,1.8-0.3,2.5-0.4c0.7-0.1,1.1-0.3,1.1-0.6
		C392,54.9,391.3,54.8,390.2,54.8z"/>
	<path class="st0" d="M404.1,81.8c0-14.2,0-16.7-0.3-19.6c-0.3-3.1-0.6-5.2-4.7-5.8c-0.9-0.2-2.5-0.2-3.6-0.3
		c-0.9-0.1-1.6-0.2-1.6-0.5c0-0.5,0.6-0.7,2-0.7c2.9,0,6.3,0,14.2,0.3c0.9,0,29.6,0,32.4-0.1c2.8-0.1,5-0.3,5.8-0.5
		c0.8-0.3,1-0.4,1.4-0.4c0.4,0,0.5,0.4,0.5,0.8c0,0.6-0.8,1.7-1,4.3c-0.1,1.4-0.6,7.2-0.9,9.5c-0.1,0.9-0.5,1.5-1,1.5
		c-0.8,0-1-0.5-1-1.2c0-1.2-0.5-2.2-0.6-3c-0.9-8.8-3.9-7.7-12.4-7.4c-2.1,0.1-15.8-0.3-17.2-0.3c-0.5,0-0.8,0.3-0.8,0.9v25
		c0,0.6,0.1,0.9,0.8,0.9c1.6,0,17.1-0.3,20-0.2c7.1,0.2,5.2-3.7,6.5-4.8c0.6-0.5,1-0.9,1.5-0.9c0.4,0,0.6,0.2,0.6,0.7
		c0,0.5,0.2,5.8-0.2,8.8c-0.4,2.8,0.2,7,0.1,8.3c-0.1,0.9-1.4,0.9-1.9,0.9c-0.8,0-0.9-0.7-0.9-1.5c0-0.8-0.1-1.7-0.5-2.5
		c-0.5-1.4-2.6-3.7-7.1-4.1c-3.4-0.3-15.8,0.5-17.9,0.5c-0.6,0-0.9,0.3-0.9,0.6v6c0,3.1-0.1,13.6,0,15.5c0.3,3.7,1,5.7,4.1,6.6
		c2.1,0.6,5.5,0.8,10.4,0.8c3.8,0,7.9-0.1,11.3-0.8c4-0.9,8.2-7.9,9.2-11.8c0.3-1,0.5-1.4,1.1-1.4c0.8,0,0.8,0.7,0.8,1.4
		c0,0.7-2.9,11.4-3.5,13.3c-0.9,2.4-2.8,3-7.7,3c-9.3,0-13.4-0.2-18.3-0.3c-5-0.1-10.8-0.3-15.7-0.3c-3,0-10,0.6-13.3,0.5
		c-1.4,0-2-0.2-2-0.7c0-0.3,0.6-0.5,1.4-0.5c1.3-0.1,2-0.1,2.9-0.3c2.6-0.5,7.6-1.3,7.9-8.1c0.1-3.5,0.3-8.2,0.3-16.2V81.8z"/>
	<path class="st0" d="M459.7,122.2c-1.6-0.6-1.8-1-1.8-3.4c0-4.5-1.5-10.2-1.4-11.6c0.1-1,0.4-1.5,0.9-1.5c0.7,0,0.8,0.3,0.8,1
		c0,0.8,2,4.1,2.4,5.4c1.8,6.7,9.5,9.3,17.3,9.3c11.2,0,14.7-5.3,14.7-11.1c0-6.3-2.4-9.9-12.5-16.3l-5.3-3.4
		c-10.1-4.8-15.4-11.2-15.2-19.7c0.2-9.7,10.4-17.3,25.2-17.3c4.6,0,8,0.4,10.9,0.9c2.2,0.4,3.2,0.5,4.1,0.5s1.2,0.2,1.2,0.6
		s-1.3,5.7-1.3,11.9c0,1.5-0.2,2.1-0.8,2.1c-0.7,0-0.8-0.5-0.9-1.2c-0.1-1.1-0.8-6.5-1.5-7.5c-0.7-1-3-4-13.8-4
		c-8.1,0-14.4,3.9-14.4,10.5c0,5.2,3,8.4,14.3,15.2l3.3,2c13.8,8.4,17.1,14.1,17.1,21.3c0,3.7-1.9,10.6-10,15.1
		c-5,2.7-11.4,3.8-17.7,3.8C469.9,124.7,464.5,124,459.7,122.2z"/>
	<path class="st0" d="M512.2,122.2c-1.6-0.6-1.8-1-1.8-3.4c0-4.5-1.5-10.2-1.4-11.6c0.1-1,0.4-1.5,0.9-1.5c0.7,0,0.8,0.3,0.8,1
		c0,0.8,2,4.1,2.4,5.4c1.8,6.7,9.5,9.3,17.3,9.3c11.2,0,14.7-5.3,14.7-11.1c0-6.3-2.4-9.9-12.5-16.3l-5.3-3.4
		c-10.1-4.8-15.4-11.2-15.2-19.7c0.2-9.7,10.4-17.3,25.2-17.3c4.6,0,8,0.4,10.9,0.9c2.2,0.4,3.2,0.5,4.1,0.5c0.9,0,1.2,0.2,1.2,0.6
		s-1.3,5.7-1.3,11.9c0,1.5-0.2,2.1-0.8,2.1c-0.7,0-0.8-0.5-0.9-1.2c-0.1-1.1-0.8-6.5-1.5-7.5c-0.7-1-3-4-13.8-4
		c-8.1,0-14.4,3.9-14.4,10.5c0,5.2,3,8.4,14.3,15.2l3.3,2c13.8,8.4,17.1,14.1,17.1,21.3c0,3.7-1.9,10.6-10,15.1
		c-5,2.7-11.4,3.8-17.7,3.8C522.4,124.7,517,124,512.2,122.2z"/>
	<path class="st0" d="M260.1,122.1c-0.6,0-2.6-0.2-4.1-0.4c-3-0.4-3.6-2.4-4-5c-0.5-3.8-0.5-11-0.5-19.7v-9.3
		c0.1,0.1,0.1,0.1,0.2,0.2c0,0,0,0,0-0.1c-0.2-0.3-0.2-0.7-0.1-1c0,0,0,0-0.1,0.1v-5.8c0-14.2,0-16.7,0.2-19.6c0.2-3.2,1-5,3.7-5.3
		c1-0.1,1.1-0.1,2.2-0.2c0.9-0.1,1.1-0.3,1.1-0.6c0-0.5-0.5-0.6-1.6-0.6c-3,0-9.4,0.3-9.9,0.3c-0.5,0-7.3-0.3-10.6-0.3
		c-1.1,0-1.6,0.2-1.6,0.7c0,0.4,0.3,0.5,1.1,0.5c0.7,0,2.5,0.1,3.6,0.4c2.2,0.5,3.2,2,3.4,5.1c0.2,2.9,0.2,5.4,0.2,19.6v16
		c0,8.7,0,15.9-0.5,19.7c-0.4,2.6-1,4.7-3,5.1c-0.9,0.2-2,0.3-2.6,0.3c-0.9,0-1.1,0.4-1.1,0.6c0,0.5,0.5,0.6,1.6,0.6
		c3,0,9-0.3,9.5-0.3c0.5,0,6.9,0.3,12.5,0.3c1.1,0,1.5-0.2,1.5-0.6C261.3,122.5,261,122.1,260.1,122.1z"/>
	<g>
		<path class="st0" d="M130.3,5.2c-0.8-2.5-1.5-3.2-2.9-3.7c-0.7-0.2-2-0.3-2.4-0.3c-0.3,0-0.5,0-0.5-0.3c0-0.2,0.3-0.3,0.8-0.3
			c2.7,0,5.6,0.1,6.2,0.1c0.5,0,2.8-0.1,5.4-0.1c0.7,0,0.9,0.1,0.9,0.3c0,0.3-0.3,0.3-0.5,0.3c-0.4,0-1.4,0-2,0.3
			c-0.3,0.1-0.7,0.5-0.7,1.1s0.5,2.2,1,4.3c0.8,3,6.2,20.2,7.1,22.8L153.9,6c0.8-1.9,1-2.2,1.3-2.2c0.4,0,0.7,0.6,1.3,2.2L167,29.9
			c1.5-4.6,6.3-18.2,8.2-24.2c0.5-1.7,0.6-2.4,0.6-3c0-0.8-0.6-1.4-3-1.4c-0.3,0-0.5-0.1-0.5-0.3c0-0.2,0.3-0.3,0.9-0.3
			c2.7,0,4.9,0.1,5.3,0.1c0.4,0,2.6-0.1,4.2-0.1c0.5,0,0.7,0.1,0.7,0.3c0,0.2-0.2,0.4-0.5,0.4c-0.2,0-1.2,0-1.8,0.2
			c-1.6,0.5-2.4,2.5-3.4,5.1c-2.3,5.9-7.6,20.8-9.6,26.1c-1.4,3.5-1.6,4-2.2,4c-0.5,0-0.8-0.6-1.6-2.4l-10.3-23.2
			c-1.9,4.6-9.1,18.8-11,23.1c-0.8,2-1.2,2.5-1.7,2.5c-0.5,0-0.8-0.5-1.8-3.7L130.3,5.2z"/>
		<path class="st0" d="M183.6,18.3c0-7.6,5.9-18.3,19.8-18.3c11.3,0,19.7,6.7,19.7,17.6c0,10.5-7.9,19.2-20,19.2
			C189.3,36.7,183.6,26.7,183.6,18.3z M218.3,18.9c0-11.2-7.3-17.3-15.3-17.3c-8.4,0-14.7,5.2-14.7,15.4c0,10.9,7,17.9,16.1,17.9
			C209,34.9,218.3,32.5,218.3,18.9z"/>
		<path class="st0" d="M266.5,36.1c-0.3,0-1.1,0-2.2-0.1c-1.4-0.2-3.9-0.7-7-3.4c-3.3-2.9-5.9-7.7-10.6-12.6c5.1-3.9,8-5.8,7.9-10.8
			c-0.1-3.2-2.5-5.5-3.9-6.4c-3-1.8-6.8-2.1-10.4-2.1c-1.8,0-6.1,0.1-6.7,0.1c-0.3,0-3.9-0.1-6.4-0.1c-0.6,0-0.9,0.1-0.9,0.4
			c0,0.2,0.2,0.3,0.5,0.3c0.5,0,1.5,0,1.9,0.1c1.9,0.3,2.3,1.1,2.5,2.7c0.1,1.5,0.1,2.8,0.1,10.1v8.2c0,4.5,0,8.2-0.3,10.2
			c-0.2,1.4-0.5,2.4-1.7,2.6c-0.5,0.1-1.2,0.2-1.7,0.2c-0.3,0-0.5,0.1-0.5,0.3c0,0.3,0.3,0.4,0.9,0.4c1.7,0,5.3-0.1,5.4-0.1
			c0.3,0,3.9,0.1,7,0.1c0.6,0,0.9-0.1,0.9-0.4c0-0.1-0.1-0.3-0.5-0.3c-0.5,0-1.8-0.1-2.6-0.2c-1.7-0.2-2.1-1.2-2.2-2.6
			c-0.3-2-0.3-5.7-0.3-10.2v-1.1c0-0.1,0-0.1,0-0.2c0-0.8,0.1-1.6,0.1-2.3c0-0.1,0-0.1,0-0.2c-0.1-0.1-0.1-0.2-0.1-0.3V3
			c0-0.3,0.2-0.5,0.5-0.6c0.6-0.1,2.1-0.3,3.8-0.3c6.1,0,9.9,3.5,9.9,9.4c0,3.6-1.5,6.1-3.5,7.2c-1.3,0.7-2.9,0.9-4.3,0.9
			c-0.5,0-0.9,0-1.4,0c0.7,0.4,1.4,0.9,1.9,1.6c0.1,0,0.2,0.1,0.3,0.2c1.1,1.2,3.7,3.6,5.5,6.6c2.9,4.8,4.7,6.8,7.2,7.9
			c1.5,0.7,2.9,0.9,6.1,0.9h4.1c1,0,1.4-0.1,1.4-0.4C267,36.2,266.8,36.1,266.5,36.1z"/>
		<path class="st0" d="M234.1,122.3c-0.7,0-2.2,0-4.3-0.3c-2.8-0.4-7.6-1.3-13.6-6.5c-6.5-5.6-11.5-14.8-20.7-24.3
			c10-7.5,15.7-11.2,15.4-20.8c-0.2-6.2-4.9-10.6-7.7-12.2c-5.9-3.4-13.4-4-20.4-4c-3.5,0-11.9,0.3-13.1,0.3
			c-0.6,0-7.6-0.3-12.6-0.3c-1.2,0-1.8,0.2-1.8,0.7c0,0.4,0.4,0.5,0.9,0.5c1,0,2.9,0.1,3.8,0.3c3.7,0.6,4.6,2.1,4.8,5.1
			c0.2,2.9,0.2,5.4,0.2,19.4v15.8c0,8.6,0,16.7-0.6,20.5c-0.4,2.6-1,4.6-3.2,4.9c-1,0.2-2.3,0.4-3.3,0.4c-0.7,0-0.9,0.3-0.9,0.5
			c0,0.5,0.6,0.7,1.8,0.7c3.3,0,10.4-0.3,10.5-0.3c0.6,0,7.6,0.3,13.7,0.3c1.2,0,1.8-0.3,1.8-0.7c0-0.3-0.2-0.5-0.9-0.5
			c-1,0-3.5-0.2-5-0.4c-3.3-0.4-4-2.3-4.3-4.9c-0.6-3.8-0.6-11.9-0.6-20.5v-2.2c0-0.1,0-0.2,0.1-0.3c0-1.5,0.1-3,0.1-4.5
			c0-0.1,0-0.3,0-0.4c-0.1-0.2-0.2-0.4-0.2-0.6V58.8c0-0.5,0.3-0.9,0.9-1.1c1.1-0.3,4.1-0.5,7.5-0.5c11.9,0,19.3,6.7,19.3,18
			c0,6.8-2.9,11.7-6.8,13.9c-2.6,1.4-5.7,1.7-8.4,1.7c-0.9,0-1.8,0-2.8-0.1c1.5,0.7,2.7,1.7,3.7,3c0.2,0.1,0.4,0.2,0.6,0.4
			c2.2,2.3,7.2,6.9,10.7,12.7c5.6,9.1,9.2,13,14,15.1c2.9,1.3,5.7,1.7,11.9,1.7h7.9c2,0,2.7-0.2,2.7-0.7
			C235.1,122.6,234.6,122.3,234.1,122.3z"/>
		<path class="st0" d="M276.8,22.6c0,6.9,0.3,9.9,1.4,10.7c1,0.8,2.7,1.1,7.6,1.1c3.4,0,6.2,0,7.7-1.4c0.8-0.7,2.5-3.4,2.7-4.3
			c0.1-0.4,0.2-0.6,0.6-0.6c0.3,0,0.4,0.2,0.4,0.7c0,0.5-1.4,4.8-2,6.1c-0.4,1.1-0.6,1.3-4,1.3c-5.5,0-10.8-0.3-17-0.3
			c-2,0-3.9,0.1-6.2,0.1c-0.7,0-1-0.1-1-0.4c0-0.1,0.1-0.3,0.5-0.3c0.6,0,1.3-0.1,1.9-0.2c1.3-0.2,1.6-1.2,1.8-2.6
			c0.3-2,0.3-5.7,0.3-10.2v-8.2c0-7.3,0-8.6-0.1-10.1c-0.1-1.6-0.6-2.3-2.7-2.7c-0.5-0.1-1.6-0.1-2.2-0.1c-0.3,0-0.5-0.1-0.5-0.3
			c0-0.3,0.3-0.4,1-0.4c2.9,0,6.9,0.1,7.2,0.1c0.3,0,4.9-0.1,6.9-0.1c0.7,0,1,0.1,1,0.4c0,0.2-0.3,0.3-0.5,0.3c-0.4,0-1.3,0-2.1,0.1
			c-1.8,0.2-2.3,1-2.5,2.7c-0.1,1.5-0.1,2.8-0.1,10.1V22.6z"/>
		<path class="st0" d="M301.8,14.2c0-7.3,0-8.6-0.1-10.1c-0.1-1.6-0.4-2.3-2.1-2.7c-0.4-0.1-1.3-0.1-1.8-0.1c-0.4,0-0.6-0.1-0.6-0.3
			c0-0.3,0.3-0.4,0.9-0.4c2.4,0,5.8,0.1,6,0.1c0.6,0,4-0.1,7.2-0.1c5.3,0,15.1-0.4,21.4,5.3c2.7,2.4,5.2,6.3,5.2,11.9
			c0,5.9-2.8,10.4-5.8,13.2c-2.3,2.1-7.1,5.4-16.2,5.4c-2.3,0-5.1-0.1-7.4-0.3c-2.4-0.1-4.2-0.3-4.4-0.3c-0.1,0-1,0-2.1,0
			c-1.1,0-2.3,0.1-3.1,0.1c-0.6,0-0.9-0.1-0.9-0.4c0-0.1,0.1-0.3,0.5-0.3c0.6,0,1-0.1,1.5-0.2c1.1-0.2,1.3-1.2,1.5-2.6
			c0.3-2,0.3-5.7,0.3-10.2V14.2z M306.2,19.3c0,5,0.1,9.3,0.1,10.2c0.1,1.2,0.2,3,0.6,3.6c0.7,0.9,2.8,1.9,9.1,1.9
			c5,0,9.6-1.6,12.7-4.4c2.8-2.4,4.3-6.9,4.3-11.2c0-5.9-2.9-9.8-5.1-11.8c-5-4.6-11.1-5.3-17.5-5.3c-1.1,0-3,0.1-3.5,0.3
			c-0.5,0.2-0.6,0.4-0.6,0.9c-0.1,1.6-0.1,6.4-0.1,10V19.3z"/>
		<path class="st0" d="M358.5,18.3c0-7.6,5.9-18.3,19.8-18.3C389.5,0,398,6.7,398,17.6c0,10.5-7.9,19.2-20,19.2
			C364.2,36.7,358.5,26.7,358.5,18.3z M393.2,18.9c0-11.2-7.3-17.3-15.3-17.3c-8.4,0-14.7,5.2-14.7,15.4c0,10.9,7,17.9,16.1,17.9
			C383.8,34.9,393.2,32.5,393.2,18.9z"/>
		<path class="st0" d="M408,14.2c0-7.3,0-8.6-0.1-10.1c-0.1-1.6-0.6-2.3-2.6-2.7c-0.4,0-1,0-1.5-0.1c-0.5,0-1-0.1-1-0.3
			c0-0.3,0.3-0.4,1-0.4c2.4,0,4.7,0.1,6.9,0.1c1.2,0,13.6,0,15,0c1.4,0,3.4,0,3.8-0.3c0.2-0.1,0.4-0.2,0.5-0.2
			c0.2,0,0.4,0.2,0.4,0.4s-0.2,0.9-0.4,1.5c-0.2,1.4-0.6,4.6-0.7,5.9c0,0.6-0.3,0.9-0.5,0.9c-0.3,0-0.4-0.2-0.4-0.6
			c-0.1-0.7-0.8-4.3-1.7-4.8c-0.7-0.5-1.8-0.8-3.6-0.9c-3.1,0-6.2-0.1-9.3-0.1c-0.4,0-0.5,0.1-0.5,0.5V17c0,0.3,0.1,0.4,0.4,0.4
			c2.5,0,6,0,8.5,0c3.2,0,4.5-1.1,5.3-1.9c0.3-0.3,0.4-0.5,0.7-0.5c0.2,0,0.3,0.1,0.3,0.4c0,0.3-0.3,2-0.5,3.6
			c-0.2,1.4-0.1,4-0.1,4.7c-0.1,0.5-0.1,0.8-0.4,0.8c-0.4,0-0.4-0.3-0.5-0.8c-0.1-1-0.8-2.8-3.9-3.1c-1.5-0.1-8.2-0.1-9.2-0.1
			c-0.3,0-0.4,0.1-0.4,0.4l-0.1,1.7c0,4,0,7.3,0.2,9.5c0.2,2.1,0.9,3.1,2.5,3.3c0.8,0.1,1.8,0.1,2.5,0.2c0.5,0,0.7,0.1,0.7,0.3
			c0,0.2-0.3,0.3-1,0.3c-3.4,0-7.2-0.1-7.5-0.1H410c-1.2,0-4,0.1-5.4,0.1c-0.7,0-1-0.1-1-0.4c0-0.1,0.1-0.2,0.7-0.3
			c0.6,0,1.2-0.1,1.6-0.2c1.3-0.3,1.7-1,1.9-3c0.2-2,0.2-5.3,0.2-9.7V14.2z"/>
	</g>
</g>
</svg>
