<?xml version="1.0" encoding="utf-8"?>
<!-- Generator: Adobe Illustrator 21.1.0, SVG Export Plug-In . SVG Version: 6.00 Build 0)  -->
<svg version="1.1" id="Layer_1" xmlns="http://www.w3.org/2000/svg" xmlns:xlink="http://www.w3.org/1999/xlink" x="0px" y="0px"
	 width="1473.1px" height="500px" viewBox="0 0 1473.1 500" style="enable-background:new 0 0 1473.1 500;" xml:space="preserve">
<style type="text/css">
	.st0{fill:#FFFFFF;}
</style>
<g>
	<polygon class="st0" points="592.5,378.8 573.7,418.2 580.2,418.2 592.9,391.6 605,418.2 614.6,418.2 596.6,378.8 	"/>
	<polygon class="st0" points="503.2,406 489.9,379.7 480.7,379.7 480.7,418.2 486.7,418.2 486.7,392.8 499.7,418.2 503.4,418.2 
		515.9,393.1 515.9,418.2 525.4,418.2 525.4,379.7 516.4,379.7 	"/>
	<polygon class="st0" points="1101.2,378.8 1082.4,418.2 1088.8,418.2 1101.5,391.6 1113.6,418.2 1123.3,418.2 1105.2,378.8 	"/>
	<polygon class="st0" points="189.3,382.9 202.6,382.9 202.6,418.2 212,418.2 212,382.9 225.4,382.9 225.4,379.7 189.3,379.7 	"/>
	<polygon class="st0" points="1291.1,382.9 1291.1,379.7 1262.4,379.7 1262.4,418.2 1291.1,418.2 1291.1,414.2 1271.8,414.2 
		1271.8,398.9 1287.9,398.9 1287.9,395.6 1271.8,395.6 1271.8,382.9 	"/>
	<polygon class="st0" points="300.8,396.5 285.3,396.5 285.3,379.7 275.9,379.7 275.9,418.2 285.3,418.2 285.3,399.8 300.8,399.8 
		300.8,418.2 310.2,418.2 310.2,379.7 300.8,379.7 	"/>
	<polygon class="st0" points="363.4,418.2 392.1,418.2 392.1,414.2 372.8,414.2 372.8,398.9 388.9,398.9 388.9,395.6 372.8,395.6 
		372.8,382.9 392.1,382.9 392.1,379.7 363.4,379.7 	"/>
	<path class="st0" d="M671.9,384.1c0.5-0.5,1.2-0.9,2.1-1.2c0.8-0.3,1.9-0.5,3.1-0.5c1.3,0,2.4,0.2,3.4,0.6c0.9,0.4,1.7,0.9,2.4,1.5
		s1.2,1.4,1.7,2.2c0.4,0.8,0.8,1.7,1.2,2.6h5.9c-0.4-1.5-1.1-2.8-1.9-4.1c-0.8-1.3-1.8-2.4-3-3.3s-2.6-1.7-4.2-2.2
		c-1.6-0.5-3.3-0.8-5.3-0.8c-2.3,0-4.4,0.3-6.3,0.8c-1.8,0.5-3.4,1.3-4.7,2.2c-1.3,1-2.2,2.1-2.9,3.4s-1,2.7-1,4.3
		c0,1.4,0.3,2.7,0.9,3.7c0.6,1.1,1.4,2.1,2.3,2.9c1,0.9,2.1,1.6,3.3,2.3c1.2,0.7,2.5,1.4,3.8,2s2.5,1.3,3.8,1.9
		c1.2,0.6,2.3,1.3,3.3,2s1.7,1.5,2.3,2.4s0.9,1.9,0.9,3.1c0,0.9-0.2,1.7-0.6,2.3c-0.4,0.6-0.9,1.1-1.5,1.5s-1.3,0.7-2.1,0.8
		c-0.8,0.2-1.6,0.3-2.4,0.3c-1.2,0-2.3-0.2-3.2-0.5c-0.9-0.4-1.7-0.8-2.4-1.4s-1.2-1.3-1.6-2.2c-0.4-0.8-0.8-1.7-1-2.7h-6.5
		c0.3,1.6,0.8,3,1.5,4.3s1.7,2.5,2.9,3.4c1.2,1,2.7,1.7,4.4,2.2s3.7,0.8,6.1,0.8c2.5,0,4.6-0.3,6.5-0.8c1.9-0.6,3.5-1.4,4.7-2.4
		c1.3-1,2.2-2.2,2.9-3.5c0.6-1.3,1-2.8,1-4.4c0-1.3-0.3-2.5-0.9-3.6c-0.6-1.1-1.4-2-2.4-2.9s-2.1-1.7-3.4-2.4
		c-1.3-0.7-2.6-1.4-3.9-2.1c-1.3-0.7-2.6-1.3-3.9-2c-1.3-0.7-2.4-1.3-3.4-2.1c-1-0.7-1.8-1.5-2.4-2.3c-0.6-0.8-0.9-1.8-0.9-2.8
		c0-0.6,0.1-1.2,0.3-1.8C671,385.1,671.4,384.6,671.9,384.1z"/>
	<path class="st0" d="M1203.9,384.6c-2.2-1.6-4.8-2.8-7.8-3.7c-3-0.8-6.3-1.3-9.9-1.3h-14v38.5h15.5c3.7,0,7-0.5,9.8-1.5
		c2.9-1,5.3-2.4,7.2-4.2c2-1.8,3.5-3.8,4.5-6.2c1-2.4,1.5-4.9,1.5-7.6c0-3-0.6-5.7-1.8-8C1207.8,388.2,1206.1,386.2,1203.9,384.6z
		 M1199.2,405.3c-0.7,1.9-1.7,3.6-2.9,4.9c-1.2,1.3-2.7,2.3-4.3,3c-1.6,0.7-3.4,1-5.2,1h-5v-30.7h5c2,0,3.8,0.4,5.4,1.1
		c1.7,0.8,3.1,1.8,4.3,3.2c1.2,1.4,2.1,2.9,2.8,4.8c0.7,1.8,1,3.8,1,6C1200.3,401.2,1199.9,403.4,1199.2,405.3z"/>
	<path class="st0" d="M1027.1,399.2c0.8-0.3,1.6-0.7,2.3-1.1c1.1-0.6,2-1.4,2.8-2.2c0.8-0.8,1.4-1.7,1.8-2.7s0.6-2,0.6-3.1
		c0-1.5-0.3-2.9-0.9-4.2c-0.6-1.3-1.6-2.4-2.8-3.3c-1.2-0.9-2.8-1.7-4.7-2.2c-1.9-0.5-4.1-0.8-6.5-0.8h-14.5v38.5h9.4v-17.4v-3.3
		v-14h3.8c0.9,0,1.8,0.2,2.5,0.5c0.8,0.3,1.4,0.8,2,1.4s1,1.4,1.3,2.2c0.3,0.8,0.5,1.8,0.5,2.8c0,1.1-0.2,2.1-0.6,3s-1,1.6-1.7,2.2
		s-1.6,1.1-2.6,1.4s-2,0.5-3.2,0.5h-0.7l12.6,20.6h10.2L1027.1,399.2z"/>
	<path class="st0" d="M786.2,415.4c-1.9,2.8-3.7,3.7-7.5,3.7l0,0c0,0-0.1,0-0.2,0c-2.4,0-6.8,0-9.7,0c6.1-2.8,11.5-9.9,12.8-19
		c1.6-11.8-6.5-22.2-18.2-22.2s-19.8,10.4-18.2,22.2c1.2,9.1,6.7,16.2,12.8,19c-2.9,0-7.3,0-9.7,0c-0.1,0-0.1,0-0.2,0l0,0
		c-3.9,0-5.7-0.8-7.5-3.7c-2.3,1.4-4.7,7.1-2.1,10.2c1.3-1.7,6.4-2.8,9.6-2.8h0.2c3.4,0,6.6,0.2,8.6,1.4c4.4,2.7,4.7,8,2.2,11.9
		c0.9,8,0.9,15.8,0.4,21.8s-1.4,14.4,0,24s3.9,18.1,3.9,18.1s2.5-8.5,3.9-18.1s0.5-17.9,0-24c-0.5-6-0.5-13.8,0.4-21.8
		c-2.5-3.9-2.2-9.2,2.2-11.9c2-1.2,5.2-1.4,8.6-1.4h0.2c3.2,0,8.4,1.1,9.6,2.8C790.7,422.6,788.5,416.7,786.2,415.4z M766.1,416
		v-2.5c0-4.3-0.3-6.3,2.7-8.7c-2.5-0.9-4.3-3.2-5.4-5.9c-1.2,2.8-2.8,4.9-5.4,5.9c3,2.3,2.7,4.4,2.7,8.7v2.5c-5-2-9.7-9-9.7-16
		c0-8.2,4.8-14.8,12.4-14.8c7.6,0,12.4,6.6,12.4,14.8C775.8,407,771.1,414,766.1,416z"/>
	<polygon class="st0" points="924.9,418.2 953.6,418.2 953.6,414.2 934.3,414.2 934.3,398.9 950.3,398.9 950.3,395.6 934.3,395.6 
		934.3,382.9 953.6,382.9 953.6,379.7 924.9,379.7 	"/>
	<path class="st0" d="M865.7,404.4c0,1.5-0.2,2.9-0.7,4.2c-0.5,1.3-1.1,2.4-2,3.4s-1.9,1.7-3.1,2.3c-1.2,0.6-2.6,0.9-4.1,0.9
		s-2.9-0.3-4.1-0.9c-1.2-0.6-2.3-1.3-3.1-2.3c-0.9-1-1.5-2.1-2-3.4s-0.7-2.7-0.7-4.2v-24.7h-9.5v24.7c0,2,0.4,3.9,1.1,5.7
		c0.7,1.8,1.9,3.3,3.3,4.7c1.5,1.3,3.3,2.4,5.4,3.2c2.2,0.8,4.6,1.2,7.5,1.2c3.2,0,5.9-0.4,8.1-1.2c2.3-0.8,4.1-1.8,5.5-3.2
		c1.4-1.3,2.5-2.9,3.2-4.7c0.7-1.8,1-3.7,1-5.6v-24.7h-5.9L865.7,404.4L865.7,404.4z"/>
</g>
<g>
	<path class="st0" d="M329.8,319.8H1189c-4.9-2.1-13.2-5.6-21-8.6H318.3L329.8,319.8z"/>
	<polygon class="st0" points="243.7,319.8 251.7,314.3 273.9,316.4 293.1,311.2 8.4,311.2 0,315.5 0,319.8 	"/>
	<polygon class="st0" points="1287.3,317.3 1272.3,311.2 1212.2,311.2 1198.9,319.8 1473.1,319.8 1473.1,311.2 1325.2,311.2 	"/>
</g>
<g>
	<path class="st0" d="M1413.5,0H134c-4,3.4-6.5,5.7-6.5,5.7s-17.1-2-25.6-2s-34.2,0-34.2,0L63.4,0H0v8.6h1408.9L1413.5,0z"/>
	<polygon class="st0" points="1473.1,8.6 1473.1,7.4 1462.6,0 1430.2,0 1428.1,8.6 	"/>
</g>
<g>
	<g>
		<path class="st0" d="M360.7,186.8h-84.5l-19,51c-2.5,6.8-3.8,12.5-3.8,17.1c0,5.3,4,10.2,12,14.9H204c7.6-4.9,13.2-9.9,16.8-15.2
			s8.3-15.2,14.2-29.8l58.9-146.9c2.5-6.3,3.8-11.3,3.8-14.9c0-5.5-3.4-9.9-10.1-13.3h53.2l70.3,175c5.5,13.5,10.3,23.3,14.6,29.3
			c4.2,6,10.1,11.2,17.7,15.7H374c8-4.9,12-9.3,12-13.3c0-2.5-1.9-8.8-5.7-18.7L360.7,186.8z M352.1,165.3l-33.9-87.4L284,165.3
			H352.1z"/>
		<path class="st0" d="M836.1,75.4v155.1c0,11,1.2,19.2,3.6,24.7c2.4,5.5,7,10.3,13.8,14.6h-65.8c7.2-3.8,11.7-10,13.6-18.7
			c0.8-3.8,1.3-11.8,1.3-24.1V92.5c0-12.2-0.4-20.3-1.3-24.1c-1.9-8.6-6.4-14.9-13.6-18.7h32c1.9,0,6-0.1,12.3-0.3
			c6.1,0,14.5,0,25,0h10.8c17.1,0,31.1,2.5,41.9,7.6c10.9,5.1,19.5,12.2,26,21.4c6.4,9.2,9.7,19,9.7,29.6c0,17.3-7.2,32.1-21.7,44.5
			c-14.5,12.3-31.8,18.5-52.1,18.5c-8.7,0-16.7-1.6-24.1-4.7c18.1-2.3,32.1-7.4,41.8-15.2c12.4-10.1,18.7-22.4,18.7-36.7
			c0-12.9-4.3-23-13-30.4s-20.5-11.1-35.5-11.1C852.2,72.8,844.4,73.7,836.1,75.4z"/>
	</g>
	<path class="st0" d="M1383.3,245c-13.3,0-27-1.2-41.2-3.5v-79.4h29.8c12.9,0,21.6,3.1,26.3,9.2v-35.5c-3.2,1.5-7,2.2-11.4,2.2
		h-44.6V75.7c8.9-1.5,20.3-2.2,34.2-2.2c9.9,0,17.4,0.7,22.5,2.2c6.5,1.7,12.8,5.4,18.7,11.1v-39c-3.6,1.3-7.8,1.9-12.7,1.9h-18.3
		l-6.4,7.9l-1.5-7.9h-84.9c7.2,3.8,11.7,10,13.6,18.7c0.8,4,1.3,12,1.3,24.1v134.2c0,12.2-0.4,20.4-1.3,24.4
		c-1.9,8.7-6.4,14.9-13.6,18.7H1433l15.5-43.7C1431.6,238.7,1409.9,245,1383.3,245z"/>
	<path class="st0" d="M1234.6,235.9c-14.9-15.6-34.8-40.2-59.7-73.8c15.8-4,28.8-11.4,38.9-22.2s15.2-22.6,15.2-35.5
		c0-17.5-7.4-31.7-22.2-42.4c-11.8-8.7-28.3-13-49.4-13c-3.4,0-8.3,0.1-14.9,0.3c-6.5,0.2-11.5,0.3-14.9,0.3h-48.4
		c7.2,3.8,11.7,10,13.6,18.7c0.8,3.8,1.3,11.8,1.3,24.1V227c0,12.2-0.4,20.3-1.3,24.1c-1.9,8.7-6.4,14.9-13.6,18.7h63.3
		c-7.2-3.8-11.7-10-13.6-18.7c-0.8-3.8-1.3-11.8-1.3-24.1V72.8c8.7-1.7,16.4-2.5,23.1-2.5c12.2,0,22.1,3.4,29.6,10.3
		s11.2,15.8,11.2,26.7c0,10.4-3.1,19.2-9.3,26.4l1.7,7.1l-8-1c-9.3,7.2-22.6,12.4-40.1,15.4c19,32.1,39,60.5,60.1,85.1
		c11,12.9,19.7,21.3,26.3,25.3c6.5,4,14.8,6,24.7,6c4.2,0,14.1-0.6,29.8-1.9C1263.5,262.8,1249.4,251.5,1234.6,235.9z"/>
	<path class="st0" d="M185.5,49.7c8,3.6,12,9.9,12,19c0,7.4-3.4,19.9-10.1,37.7l-4.3,11.2l4.1,6.7l-7.6,2.4l-39.4,103.4L85.5,80.8
		c-5.1-13.7-7.6-22.9-7.6-27.5c0-1.3,0.1-2.4,0.3-3.5H29.4c6.3,5.7,10.7,11,13.1,15.8c2.4,4.9,7.8,18.5,16,40.8l45.3,122.2
		c5.3,14.1,9.8,23.5,13.6,28.2c4.4,5.3,14.2,12.9,29.4,22.8l89.3-229.8h-50.6V49.7z"/>
</g>
<path class="st0" d="M692.7,269.4H757c-6.1-4.8-10.1-9.7-12.1-14.5c-2-4.8-3.8-13.1-5.5-24.9L718.9,83c-0.6-4.6-0.9-8.7-0.9-12.3
	c0-10.3,3.5-17.1,10.4-20.5h-57.7c0,5.3-2.1,13.2-6.3,24l-53.9,138.2L559.2,92h-9.1l3.4-4l1.3-6.3l-8.4-19.8
	c-2.1-4.8-3.2-8.7-3.2-11.7h-58.4c7.8,5.5,11.7,11.6,11.7,18.3c0,2.1-0.6,7.8-1.9,17l-19.2,140.1c-2.7,20.4-8.7,35-18,43.8H512
	c-5-3.4-8.5-6.6-10.4-9.8c-1.9-3.2-2.8-7.6-2.8-13.2c0-2.9,0.5-8.4,1.6-16.4L520,83l65.3,154.3c3.8,9,7.3,15.7,10.6,20
	c3.3,4.3,8.9,9.8,16.9,16.6l74.8-190.8L705,225.5c1.1,8.4,1.6,14.4,1.6,18C706.6,256.3,701.9,265,692.7,269.4z"/>
<path class="st0" d="M1023.8,250.8c-0.8-3.6-1.2-11-1.3-22.1l-2.2-0.4l-0.2-3.6l-5.5-1.3l7.9-8.5V92.7c0-12.2,0.4-20.2,1.3-24
	c1.9-8.6,6.4-14.8,13.6-18.6h-63.1c7.1,3.8,11.7,10,13.6,18.6c0.8,3.8,1.3,11.8,1.3,24v134.1c0,12.2-0.4,20.2-1.3,24
	c-1.9,8.6-6.4,14.8-13.6,18.6h63.1C1030.2,265.6,1025.6,259.4,1023.8,250.8z"/>
</svg>
